<svg width="57" height="56" viewBox="0 0 57 56" fill="none" xmlns="http://www.w3.org/2000/svg">
<g clip-path="url(#clip0_621_8419)">
<path d="M56.5 27.9999C56.5 12.536 43.964 -6.10352e-05 28.5 -6.10352e-05C13.036 -6.10352e-05 0.5 12.536 0.5 27.9999C0.5 41.9756 10.7392 53.5592 24.125 55.6598V36.0937H17.0156V27.9999H24.125V21.8312C24.125 14.8137 28.3052 10.9374 34.701 10.9374C37.7644 10.9374 40.9688 11.4843 40.9688 11.4843V18.3749H37.438C33.9597 18.3749 32.875 20.5333 32.875 22.7476V27.9999H40.6406L39.3992 36.0937H32.875V55.6598C46.2608 53.5592 56.5 41.9756 56.5 27.9999Z" fill="#1877F2"/>
<path d="M39.3992 36.0938L40.6406 28H32.875V22.7476C32.875 20.5334 33.9597 18.375 37.438 18.375H40.9688V11.4844C40.9688 11.4844 37.7644 10.9375 34.701 10.9375C28.3052 10.9375 24.125 14.8138 24.125 21.8312V28H17.0156V36.0938H24.125V55.6598C25.5505 55.8835 27.0116 56 28.5 56C29.9884 56 31.4495 55.8835 32.875 55.6598V36.0938H39.3992Z" fill="white"/>
</g>
<defs>
<clipPath id="clip0_621_8419">
<rect width="56" height="56" fill="white" transform="translate(0.5)"/>
</clipPath>
</defs>
</svg>
