<svg width="57" height="56" viewBox="0 0 57 56" fill="none" xmlns="http://www.w3.org/2000/svg">
<path d="M53.14 28.5834C53.14 26.7634 52.9767 25.0134 52.6733 23.3334H28.5V33.2617H42.3133C41.7183 36.47 39.91 39.1884 37.1917 41.0084V47.4484H45.4867C50.34 42.98 53.14 36.4 53.14 28.5834Z" fill="#4285F4"/>
<path d="M28.5 53.6667C35.43 53.6667 41.24 51.3684 45.4867 47.4484L37.1917 41.0084C34.8934 42.5484 31.9534 43.4584 28.5 43.4584C21.815 43.4584 16.1567 38.9434 14.1384 32.8767H5.56335V39.5267C9.78669 47.915 18.4667 53.6667 28.5 53.6667Z" fill="#34A853"/>
<path d="M14.1383 32.8767C13.625 31.3367 13.3333 29.6917 13.3333 28.0001C13.3333 26.3084 13.625 24.6634 14.1383 23.1234V16.4734H5.56331C3.76665 20.0501 2.83173 23.9975 2.83332 28.0001C2.83332 32.1417 3.82498 36.0617 5.56331 39.5267L14.1383 32.8767Z" fill="#FBBC05"/>
<path d="M28.5 12.5416C32.2684 12.5416 35.6517 13.8366 38.3117 16.38L45.6734 9.01831C41.2284 4.87665 35.4184 2.33331 28.5 2.33331C18.4667 2.33331 9.78669 8.08498 5.56335 16.4733L14.1384 23.1233C16.1567 17.0566 21.815 12.5416 28.5 12.5416Z" fill="#EA4335"/>
</svg>
