<svg width="1440" height="1024" viewBox="0 0 1440 1024" fill="none" xmlns="http://www.w3.org/2000/svg">
<path d="M-467.727 327.865C-178.766 401.318 18.2474 536.09 273.038 697.208C602.883 905.787 1304.84 731.856 1526.59 280.051" stroke="#F5B700"/>
<path d="M-459.626 291.722C-173.528 375.639 18.4517 517.49 267.212 687.771C589.25 908.212 1297.07 759.935 1535.11 316.497" stroke="#F5B700"/>
<path d="M-450.214 255.897C-167.36 350.168 19.3325 498.91 261.733 678.128C575.538 910.139 1288.29 787.712 1542.3 353.228" stroke="#F5B700"/>
<path d="M-439.506 220.439C-160.268 324.938 20.8887 480.373 256.608 668.292C561.764 911.567 1278.5 815.152 1548.15 390.197" stroke="#F5B700"/>
<path d="M-427.515 185.393C-152.264 299.982 23.1183 461.906 251.845 658.276C547.948 912.492 1267.71 842.218 1552.65 427.354" stroke="#F5B700"/>
<path d="M-414.256 150.808C-143.356 275.335 26.0185 443.532 247.449 648.094C534.108 912.914 1255.95 868.873 1555.79 464.65" stroke="#F5B700"/>
<path d="M-399.748 116.727C-133.558 251.028 29.5851 425.276 243.427 637.758C520.261 912.832 1243.23 895.082 1557.58 502.036" stroke="#F5B700"/>
<path d="M-384.01 83.1968C-122.882 227.093 33.8136 407.161 239.783 627.283C506.426 912.247 1229.56 920.811 1558 539.462" stroke="#F5B700"/>
<path d="M-367.062 50.2613C-111.343 203.563 38.6983 389.213 236.523 616.682C492.622 911.158 1214.97 946.026 1557.06 576.879" stroke="#F5B700"/>
<path d="M-348.927 17.9643C-98.9545 180.468 44.2327 371.454 233.651 605.97C478.867 909.568 1199.47 970.694 1554.76 614.237" stroke="#F5B700"/>
<path d="M-329.629 -13.6513C-85.7344 157.839 50.4096 353.908 231.17 595.16C465.178 907.479 1183.08 994.781 1551.11 651.486" stroke="#F5B700"/>
<path d="M-309.194 -44.5442C-71.6998 135.706 57.2208 336.598 229.085 584.267C451.575 904.893 1165.82 1018.26 1546.1 688.578" stroke="#F5B700"/>
<path d="M-287.649 -74.6731C-56.8692 114.098 64.6571 319.548 227.396 573.306C438.074 901.814 1147.72 1041.09 1539.74 725.463" stroke="#F5B700"/>
</svg>
